<svg xmlns="http://www.w3.org/2000/svg" shape-rendering="geometricPrecision" text-rendering="geometricPrecision" image-rendering="optimizeQuality" fill-rule="evenodd" clip-rule="evenodd" viewBox="0 0 512 303.929"><path d="M322.28 215.472l24.884 65.336 12.507-35.617-6.13-6.7c-4.611-6.737-3.028-14.384 5.516-15.765 2.881-.468 6.122-.177 9.26-.177 3.319 0 7.019-.307 10.166.388 7.93 1.749 8.757 9.437 4.805 15.554l-6.133 6.7 12.51 35.617 22.503-65.336c16.241 14.616 52.42 17.561 70.304 27.53 24.785 13.874 24.107 36.112 29.528 60.927l-179.117-.002a18.92 18.92 0 00-.642-4.869c-1.843-6.883-2.862-14.206-3.872-21.49-2.095-15.093-4.184-30.093-12.465-45.631-1.703-3.191-3.836-5.912-6.283-8.297 4.63-2.165 8.912-4.794 12.659-8.168zm-88.996 20.248c-7.952-15.961-10.664-22.124-22.399-34.842 22.116 8.555 40.931 9.637 57.664 20.135 10.647 6.673 26.445 11.699 30.752 19.778 10.602 19.888 9.044 41.982 14.712 63.138H0c5.666-21.156 4.105-43.25 14.713-63.138 4.307-8.079 20.625-13.105 31.277-19.778 16.728-10.498 35.543-11.58 57.665-20.135-11.735 12.718-14.451 18.881-22.405 34.842l23.033-.564 51.705 41.296 54.263-41.296 23.033.564zm-113.643-57.169v13.905l-10.767 23.016 48.365 37.543 48.426-37.908-15.015-23.982v-12.936c18.447-.982 34.294-2.626 43.065-4.769 11.334-2.764 20.785-6.9 27.306-13.138-10.174-4.887-16.686-13.271-20.42-24.183-8.685-25.399-.462-49.514-4.34-77.08-5.192-36.929-29.348-49.297-53.302-46.743C152.404-12.835 97.558 1.845 82.742 44.752c-7.484 21.662-2.947 38.216-3.739 60.166-1.063 29.542-8.773 46.433-25.484 52.73 5.784 6.882 14.056 12.172 24.953 15.728 8.134 2.654 23.281 4.329 41.169 5.175zm198.045-6.886c-2.253.039-4.091-.237-6.094-1.35-2.671-1.478-4.548-4.019-5.818-6.883-2.687-6.009-4.816-21.818 1.945-26.343l-1.264-.819-.144-1.749c-.26-3.183-.327-7.033-.39-11.074-.247-14.868-.557-32.877-12.831-36.491l-5.267-1.55 3.468-4.179c9.922-11.934 20.281-22.371 30.732-30.384 11.821-9.064 23.835-15.1 35.592-16.835 12.086-1.794 23.796.913 34.612 9.426 3.192 2.516 6.294 5.533 9.283 9.076 11.539 1.084 20.976 7.137 27.71 15.778 4.018 5.154 7.071 11.251 9.017 17.735a59.423 59.423 0 012.424 20.096c-.656 12.117-5.206 23.954-14.375 32.587 1.611.055 3.131.417 4.475 1.118 5.115 2.668 5.281 8.458 3.936 13.312-1.328 4.06-3.017 8.771-4.608 12.726-1.937 5.339-4.769 6.332-10.243 5.757-12.291 53.789-86.622 55.624-102.16.046z"/></svg>
